# xmcd
#
# Track frame offsets:
#	150
#	10749
#	27671
#	44968
#	57098
#	76535
#	92012
#	102554
#	119001
#	132328
#	143885
#	157119
#	172809
#
# Disc length: 2492 seconds
#
# Revision: 3
# Processed by: cddbd v1.5.2PL0 Copyright (c) Steve Scherf et al.
# Submitted via: EasyCDDAExtractor 8.2.3.1
#
DISCID=b009ba0d
DTITLE=Doc Watson - Portrait
DYEAR=1987
DGENRE=country
TTITLE0=I'm Worried Now
TTITLE1=Nobody Knows But Me
TTITLE2=Leaving London
TTITLE3=Stay In The Middle Of The Road
TTITLE4=Risin' Sun Blues
TTITLE5=George Gudger's Overalls
TTITLE6=Tucker's Barn
TTITLE7=Storms On The Ocean
TTITLE8=Prayer Bells Of Heaven
TTITLE9=Tough Luck Man
TTITLE10=She's Gone Away
TTITLE11=Country Blues
TTITLE12=Blue Eyed Jane
EXTD=
EXTT0=
EXTT1=
EXTT2=
EXTT3=
EXTT4=
EXTT5=
EXTT6=
EXTT7=
EXTT8=
EXTT9=
EXTT10=
EXTT11=
EXTT12=
PLAYORDER=
